<?xml version="1.0" encoding="utf-8"?>
<!-- Generator: Adobe Illustrator 26.0.3, SVG Export Plug-In . SVG Version: 6.00 Build 0)  -->
<svg version="1.1" id="Layer_1" xmlns="http://www.w3.org/2000/svg" xmlns:xlink="http://www.w3.org/1999/xlink" x="0px" y="0px"
	 viewBox="0 0 139 39" style="enable-background:new 0 0 139 39;" xml:space="preserve">
<style type="text/css">
	.st0{font-family:'Arial-Black';}
	.st1{font-size:51.9594px;}
	.st2{font-size:17.3198px;}
	.st3{font-size:26px;}
	.st4{fill:url(#SVGID_1_);}
	.st5{fill:url(#SVGID_00000046305998199782120540000005960703624033449381_);}
	.st6{fill:url(#SVGID_00000154422518128199104720000000608114194847739070_);}
	.st7{fill:url(#SVGID_00000002379862142079970140000008671709793023797165_);}
	.st8{fill:url(#SVGID_00000155143800205811298510000013795600566483561132_);}
	.st9{fill:url(#SVGID_00000039848926380599987140000014527241457150823071_);}
	.st10{fill:url(#SVGID_00000114782515038939770210000004099319873316716939_);}
	.st11{fill:url(#SVGID_00000008118925979955049340000005352440424497635242_);}
	.st12{fill:url(#SVGID_00000147904051388801927970000014832296925893286537_);}
</style>
<g>
	<text transform="matrix(1 0 0 1 -2.9487 37.9582)"><tspan x="0" y="0" class="st0 st1">lot</tspan><tspan x="75" y="0" class="st0 st2">Share</tspan><tspan x="129.9" y="0" class="st0 st3">.</tspan></text>
	<g>
		<linearGradient id="SVGID_1_" gradientUnits="userSpaceOnUse" x1="67.2742" y1="38.5676" x2="67.2742" y2="0.7643">
			<stop  offset="0" style="stop-color:#3754FB"/>
			<stop  offset="1" style="stop-color:#FC01FF"/>
		</linearGradient>
		<path class="st4" d="M0.5,0.8h10.4V38H0.5V0.8z"/>
		
			<linearGradient id="SVGID_00000034798157451980769790000007140744091854686092_" gradientUnits="userSpaceOnUse" x1="67.2742" y1="38.5676" x2="67.2742" y2="0.7643">
			<stop  offset="0" style="stop-color:#3754FB"/>
			<stop  offset="1" style="stop-color:#FC01FF"/>
		</linearGradient>
		<path style="fill:url(#SVGID_00000034798157451980769790000007140744091854686092_);" d="M16.2,24.6c0-4.1,1.4-7.5,4.2-10.2
			c2.8-2.7,6.5-4,11.2-4c5.4,0,9.5,1.6,12.2,4.7c2.2,2.5,3.3,5.6,3.3,9.3c0,4.1-1.4,7.5-4.1,10.2s-6.5,4-11.4,4
			c-4.3,0-7.8-1.1-10.5-3.3C17.8,32.5,16.2,29,16.2,24.6z M26.6,24.5c0,2.4,0.5,4.2,1.5,5.3c1,1.2,2.2,1.7,3.7,1.7
			c1.5,0,2.7-0.6,3.7-1.7c1-1.1,1.4-3,1.4-5.5c0-2.3-0.5-4.1-1.4-5.2c-1-1.1-2.2-1.7-3.6-1.7c-1.5,0-2.7,0.6-3.7,1.7
			C27,20.4,26.6,22.2,26.6,24.5z"/>
		
			<linearGradient id="SVGID_00000052071834478927672900000012917515274131933063_" gradientUnits="userSpaceOnUse" x1="67.2742" y1="38.5676" x2="67.2742" y2="0.7643">
			<stop  offset="0" style="stop-color:#3754FB"/>
			<stop  offset="1" style="stop-color:#FC01FF"/>
		</linearGradient>
		<path style="fill:url(#SVGID_00000052071834478927672900000012917515274131933063_);" d="M64.6,0.8V11h5.7v7.6h-5.7v9.5
			c0,1.1,0.1,1.9,0.3,2.3c0.3,0.6,0.9,0.9,1.8,0.9c0.8,0,1.8-0.2,3.2-0.7l0.8,7.1c-2.6,0.6-4.9,0.8-7.2,0.8c-2.6,0-4.5-0.3-5.7-1
			c-1.2-0.7-2.1-1.7-2.7-3s-0.9-3.5-0.9-6.5v-9.5h-3.8V11h3.8V6.1L64.6,0.8z"/>
		
			<linearGradient id="SVGID_00000114063146094250568610000013222348753340595846_" gradientUnits="userSpaceOnUse" x1="67.2742" y1="38.5676" x2="67.2742" y2="0.7643">
			<stop  offset="0" style="stop-color:#3754FB"/>
			<stop  offset="1" style="stop-color:#FC01FF"/>
		</linearGradient>
		<path style="fill:url(#SVGID_00000114063146094250568610000013222348753340595846_);" d="M72.7,33.9l3.6-0.2
			c0.1,0.6,0.2,1,0.5,1.4c0.4,0.5,1,0.8,1.7,0.8c0.5,0,1-0.1,1.3-0.4c0.3-0.3,0.4-0.6,0.4-0.9c0-0.3-0.1-0.6-0.4-0.9
			c-0.3-0.3-0.9-0.5-2-0.7c-1.7-0.4-2.9-0.9-3.6-1.5c-0.7-0.6-1.1-1.4-1.1-2.4c0-0.6,0.2-1.2,0.6-1.8c0.4-0.6,0.9-1,1.7-1.3
			s1.8-0.5,3-0.5c1.6,0,2.8,0.3,3.6,0.9s1.3,1.5,1.5,2.8l-3.6,0.2c-0.1-0.6-0.3-1-0.6-1.2c-0.3-0.3-0.7-0.4-1.3-0.4
			c-0.4,0-0.8,0.1-1,0.3c-0.2,0.2-0.3,0.4-0.3,0.7c0,0.2,0.1,0.4,0.3,0.5c0.2,0.2,0.6,0.3,1.3,0.5c1.7,0.4,2.9,0.7,3.6,1.1
			c0.7,0.4,1.3,0.8,1.6,1.4s0.5,1.2,0.5,1.8c0,0.8-0.2,1.5-0.7,2.2s-1.1,1.2-1.8,1.5s-1.8,0.5-3,0.5c-2.1,0-3.6-0.4-4.4-1.2
			C73.2,36.1,72.8,35.1,72.7,33.9z"/>
		
			<linearGradient id="SVGID_00000169559956314008764940000012787500544290478766_" gradientUnits="userSpaceOnUse" x1="67.2742" y1="38.5676" x2="67.2742" y2="0.7643">
			<stop  offset="0" style="stop-color:#3754FB"/>
			<stop  offset="1" style="stop-color:#FC01FF"/>
		</linearGradient>
		<path style="fill:url(#SVGID_00000169559956314008764940000012787500544290478766_);" d="M85.6,25.6h3.4v4.6
			c0.5-0.5,0.9-0.8,1.4-1c0.5-0.2,1-0.3,1.6-0.3c0.9,0,1.7,0.3,2.2,0.9s0.8,1.4,0.8,2.6V38h-3.5V33c0-0.6-0.1-1-0.3-1.2
			c-0.2-0.2-0.5-0.4-0.9-0.4c-0.4,0-0.8,0.2-1,0.5s-0.4,0.9-0.4,1.7V38h-3.4V25.6z"/>
		
			<linearGradient id="SVGID_00000178912740149594345030000006551187903306868122_" gradientUnits="userSpaceOnUse" x1="67.2742" y1="38.5676" x2="67.2742" y2="0.7643">
			<stop  offset="0" style="stop-color:#3754FB"/>
			<stop  offset="1" style="stop-color:#FC01FF"/>
		</linearGradient>
		<path style="fill:url(#SVGID_00000178912740149594345030000006551187903306868122_);" d="M100.3,31.9L97,31.5
			c0.1-0.6,0.3-1,0.5-1.4c0.2-0.3,0.6-0.6,1-0.9c0.3-0.2,0.8-0.3,1.3-0.4c0.6-0.1,1.1-0.1,1.8-0.1c1,0,1.9,0.1,2.5,0.2
			c0.6,0.1,1.1,0.4,1.6,0.7c0.3,0.3,0.5,0.6,0.7,1.1c0.2,0.5,0.3,0.9,0.3,1.3v4c0,0.4,0,0.8,0.1,1c0.1,0.2,0.2,0.5,0.4,0.9h-3.2
			c-0.1-0.2-0.2-0.4-0.3-0.5c0-0.1-0.1-0.3-0.1-0.6c-0.5,0.4-0.9,0.7-1.3,0.9c-0.6,0.2-1.3,0.4-2.1,0.4c-1.1,0-1.9-0.2-2.4-0.7
			s-0.8-1.1-0.8-1.8c0-0.7,0.2-1.2,0.6-1.7c0.4-0.4,1.1-0.8,2.2-1c1.3-0.3,2.1-0.4,2.5-0.5c0.4-0.1,0.8-0.2,1.2-0.4
			c0-0.4-0.1-0.7-0.3-0.9s-0.5-0.3-0.9-0.3c-0.6,0-1,0.1-1.3,0.3C100.6,31.2,100.4,31.5,100.3,31.9z M103.3,33.7
			c-0.5,0.2-1,0.3-1.5,0.4c-0.7,0.2-1.1,0.4-1.3,0.5c-0.2,0.2-0.3,0.4-0.3,0.6c0,0.3,0.1,0.5,0.3,0.7c0.2,0.2,0.5,0.3,0.8,0.3
			c0.4,0,0.7-0.1,1.1-0.3c0.3-0.2,0.6-0.4,0.7-0.7c0.1-0.3,0.2-0.6,0.2-1V33.7z"/>
		
			<linearGradient id="SVGID_00000172425519175197383740000007595214170242964129_" gradientUnits="userSpaceOnUse" x1="67.2742" y1="38.5676" x2="67.2742" y2="0.7643">
			<stop  offset="0" style="stop-color:#3754FB"/>
			<stop  offset="1" style="stop-color:#FC01FF"/>
		</linearGradient>
		<path style="fill:url(#SVGID_00000172425519175197383740000007595214170242964129_);" d="M108.8,29h3.2v1.5c0.3-0.6,0.6-1.1,1-1.3
			c0.3-0.2,0.7-0.4,1.2-0.4c0.5,0,1.1,0.2,1.7,0.5l-1.1,2.5c-0.4-0.2-0.7-0.3-1-0.3c-0.5,0-0.8,0.2-1,0.6c-0.4,0.5-0.5,1.5-0.5,2.9
			v3h-3.5V29z"/>
		
			<linearGradient id="SVGID_00000064340546902955787150000008490134439298461373_" gradientUnits="userSpaceOnUse" x1="67.2742" y1="38.5676" x2="67.2742" y2="0.7643">
			<stop  offset="0" style="stop-color:#3754FB"/>
			<stop  offset="1" style="stop-color:#FC01FF"/>
		</linearGradient>
		<path style="fill:url(#SVGID_00000064340546902955787150000008490134439298461373_);" d="M126.4,34.3h-6.9c0.1,0.6,0.2,1,0.4,1.2
			c0.3,0.4,0.8,0.6,1.3,0.6c0.3,0,0.7-0.1,1-0.3c0.2-0.1,0.4-0.3,0.6-0.6l3.4,0.3c-0.5,0.9-1.1,1.5-1.9,1.9
			c-0.7,0.4-1.8,0.6-3.2,0.6c-1.2,0-2.1-0.2-2.8-0.5c-0.7-0.3-1.2-0.9-1.7-1.6s-0.7-1.6-0.7-2.6c0-1.4,0.4-2.5,1.3-3.4
			s2.1-1.3,3.7-1.3c1.3,0,2.3,0.2,3,0.6s1.3,1,1.7,1.7c0.4,0.7,0.6,1.7,0.6,2.9V34.3z M122.9,32.7c-0.1-0.7-0.2-1.1-0.5-1.4
			s-0.7-0.4-1.1-0.4c-0.5,0-1,0.2-1.3,0.7c-0.2,0.3-0.3,0.7-0.4,1.2H122.9z"/>
		
			<linearGradient id="SVGID_00000062165129072155389780000000762601819569576379_" gradientUnits="userSpaceOnUse" x1="67.2742" y1="38.5676" x2="67.2742" y2="0.7643">
			<stop  offset="0" style="stop-color:#3754FB"/>
			<stop  offset="1" style="stop-color:#FC01FF"/>
		</linearGradient>
		<path style="fill:url(#SVGID_00000062165129072155389780000000762601819569576379_);" d="M128.5,32.8h5.5V38h-5.5V32.8z"/>
	</g>
</g>
</svg>
